<svg xmlns="http://www.w3.org/2000/svg" xmlns:xlink="http://www.w3.org/1999/xlink" width="567" zoomAndPan="magnify" viewBox="0 0 425.25 141.750002" height="189" preserveAspectRatio="xMidYMid meet" version="1.0"><defs><g/><clipPath id="4d5ed4410a"><path d="M 0 23 L 424.5 23 L 424.5 104 L 0 104 Z M 0 23 " clip-rule="nonzero"/></clipPath><clipPath id="2026488d49"><path d="M 0 0 L 424.5 0 L 424.5 80.738281 L 0 80.738281 Z M 0 0 " clip-rule="nonzero"/></clipPath><clipPath id="541d80f53a"><rect x="0" width="425" y="0" height="81"/></clipPath><clipPath id="f2a8d013f7"><rect x="0" width="425" y="0" height="81"/></clipPath></defs><g clip-path="url(#4d5ed4410a)"><g transform="matrix(1, 0, 0, 1, 0, 23)"><g clip-path="url(#f2a8d013f7)"><g clip-path="url(#2026488d49)"><g transform="matrix(1, 0, 0, 1, 0, 0.000000000000035527)"><g clip-path="url(#541d80f53a)"><g fill="#ffffff" fill-opacity="1"><g transform="translate(0.000000000000042563, 63.495408)"><g><path d="M 27.578125 1.046875 C 20.691406 1.046875 15.476562 -0.566406 11.9375 -3.796875 C 8.40625 -7.035156 6.640625 -11.585938 6.640625 -17.453125 L 6.640625 -46.78125 L 2.4375 -47.828125 L 2.4375 -48.875 L 22.34375 -48.875 L 22.34375 -47.828125 L 18.15625 -46.78125 L 18.15625 -17.453125 C 18.15625 -11.453125 19.082031 -7.160156 20.9375 -4.578125 C 22.800781 -1.992188 25.484375 -0.703125 28.984375 -0.703125 C 31.117188 -0.703125 33.148438 -1.382812 35.078125 -2.75 C 37.015625 -4.125 38.578125 -6.078125 39.765625 -8.609375 C 40.953125 -11.148438 41.546875 -14.097656 41.546875 -17.453125 L 41.546875 -45.734375 L 35.96875 -47.828125 L 35.96875 -48.875 L 49.234375 -48.875 L 49.234375 -47.828125 L 43.640625 -45.734375 L 43.640625 -17.453125 C 43.640625 -13.679688 42.941406 -10.398438 41.546875 -7.609375 C 40.148438 -4.816406 38.238281 -2.675781 35.8125 -1.1875 C 33.394531 0.300781 30.648438 1.046875 27.578125 1.046875 Z M 27.578125 1.046875 "/></g></g></g><g fill="#ffffff" fill-opacity="1"><g transform="translate(49.571708, 63.495408)"><g><path d="M 20.953125 1.046875 C 17.878906 1.046875 15.210938 0.488281 12.953125 -0.625 C 10.691406 -1.738281 8.957031 -3.273438 7.75 -5.234375 C 6.539062 -7.191406 5.9375 -9.40625 5.9375 -11.875 L 5.9375 -33.171875 L 1.046875 -33.171875 L 1.046875 -34.90625 L 5.9375 -34.90625 L 5.9375 -38.40625 C 5.9375 -42.59375 8.03125 -44.6875 12.21875 -44.6875 L 17.109375 -44.6875 L 17.109375 -34.90625 L 26.890625 -34.90625 L 26.890625 -33.171875 L 17.109375 -33.171875 L 17.109375 -11.875 C 17.109375 -7.59375 17.550781 -4.660156 18.4375 -3.078125 C 19.320312 -1.492188 20.625 -0.703125 22.34375 -0.703125 C 24.019531 -0.703125 25.484375 -1.515625 26.734375 -3.140625 C 27.992188 -4.773438 28.625 -6.988281 28.625 -9.78125 L 30.375 -9.78125 C 30.375 -6.332031 29.507812 -3.664062 27.78125 -1.78125 C 26.0625 0.101562 23.785156 1.046875 20.953125 1.046875 Z M 20.953125 1.046875 "/></g></g></g><g fill="#ffffff" fill-opacity="1"><g transform="translate(80.990392, 63.495408)"><g><path d="M 19.203125 1.046875 C 16.316406 1.046875 13.734375 0.414062 11.453125 -0.84375 C 10.335938 -1.445312 9.429688 -2.097656 8.734375 -2.796875 C 7.984375 -1.765625 7.164062 -0.972656 6.28125 -0.421875 C 5.863281 -0.140625 5.398438 0.113281 4.890625 0.34375 L 3.140625 0.34375 L 3.140625 -11.515625 L 5.9375 -11.515625 C 6.539062 -9.566406 7.425781 -7.753906 8.59375 -6.078125 C 11.0625 -2.492188 14.132812 -0.703125 17.8125 -0.703125 C 19.757812 -0.703125 21.234375 -1.175781 22.234375 -2.125 C 23.234375 -3.082031 23.734375 -4.46875 23.734375 -6.28125 C 23.734375 -7.820312 23.046875 -9.113281 21.671875 -10.15625 C 20.304688 -11.207031 18.15625 -12.5 15.21875 -14.03125 C 12.707031 -15.289062 10.671875 -16.421875 9.109375 -17.421875 C 7.546875 -18.421875 6.21875 -19.675781 5.125 -21.1875 C 4.03125 -22.707031 3.484375 -24.488281 3.484375 -26.53125 C 3.484375 -29.320312 4.679688 -31.59375 7.078125 -33.34375 C 9.484375 -35.09375 13.175781 -35.96875 18.15625 -35.96875 C 20.625 -35.96875 22.90625 -35.3125 25 -34 C 26.019531 -33.394531 26.90625 -32.769531 27.65625 -32.125 C 28.257812 -32.957031 29.070312 -33.75 30.09375 -34.5 C 30.882812 -34.957031 31.351562 -35.210938 31.5 -35.265625 L 33.234375 -35.265625 L 33.234375 -23.390625 L 30.4375 -23.390625 C 29.738281 -25.390625 28.878906 -27.179688 27.859375 -28.765625 C 25.535156 -32.398438 22.765625 -34.21875 19.546875 -34.21875 C 18.296875 -34.21875 17.226562 -33.75 16.34375 -32.8125 C 15.457031 -31.882812 15.015625 -30.722656 15.015625 -29.328125 C 15.015625 -27.554688 15.757812 -26.078125 17.25 -24.890625 C 18.738281 -23.703125 20.992188 -22.34375 24.015625 -20.8125 C 26.484375 -19.550781 28.453125 -18.441406 29.921875 -17.484375 C 31.390625 -16.535156 32.644531 -15.363281 33.6875 -13.96875 C 34.738281 -12.570312 35.265625 -10.941406 35.265625 -9.078125 C 35.265625 -2.328125 29.910156 1.046875 19.203125 1.046875 Z M 19.203125 1.046875 "/></g></g></g><g fill="#ffffff" fill-opacity="1"><g transform="translate(118.692818, 63.495408)"><g><path d="M 16.40625 1.046875 C 12.257812 1.046875 9.066406 0.160156 6.828125 -1.609375 C 4.597656 -3.378906 3.484375 -5.632812 3.484375 -8.375 C 3.484375 -10.195312 3.878906 -11.988281 4.671875 -13.75 C 5.003906 -14.59375 5.425781 -15.363281 5.9375 -16.0625 C 7.84375 -16.53125 9.914062 -16.945312 12.15625 -17.3125 C 17.175781 -18.15625 21.617188 -18.671875 25.484375 -18.859375 L 25.484375 -20.953125 C 25.484375 -26.117188 24.851562 -29.675781 23.59375 -31.625 C 22.34375 -33.582031 20.414062 -34.5625 17.8125 -34.5625 C 16.832031 -34.5625 15.992188 -34.445312 15.296875 -34.21875 L 14.3125 -33.859375 L 14.3125 -23.390625 L 13.40625 -23.1875 C 12.664062 -23.09375 12.035156 -23.046875 11.515625 -23.046875 C 9.929688 -23.046875 8.660156 -23.519531 7.703125 -24.46875 C 6.753906 -25.425781 6.28125 -26.695312 6.28125 -28.28125 C 6.28125 -30.425781 7.363281 -32.242188 9.53125 -33.734375 C 11.695312 -35.222656 14.921875 -35.96875 19.203125 -35.96875 C 22.835938 -35.96875 25.96875 -35.328125 28.59375 -34.046875 C 31.226562 -32.765625 33.226562 -30.992188 34.59375 -28.734375 C 35.96875 -26.472656 36.65625 -23.878906 36.65625 -20.953125 L 36.65625 -2.09375 L 40.84375 -1.046875 L 40.84375 0 L 34.5625 0 C 31.769531 0 29.609375 -0.859375 28.078125 -2.578125 C 27.421875 -3.273438 26.90625 -4.160156 26.53125 -5.234375 C 25.882812 -4.066406 25.117188 -3.019531 24.234375 -2.09375 C 22.140625 0 19.53125 1.046875 16.40625 1.046875 Z M 19.203125 -1.390625 C 20.921875 -1.390625 22.476562 -2.320312 23.875 -4.1875 C 24.394531 -4.882812 24.929688 -5.816406 25.484375 -6.984375 L 25.484375 -17.109375 C 23.347656 -17.109375 21.300781 -16.992188 19.34375 -16.765625 C 17.894531 -16.578125 16.914062 -16.457031 16.40625 -16.40625 C 16.175781 -15.894531 15.945312 -15.195312 15.71875 -14.3125 C 15.25 -12.539062 15.015625 -10.796875 15.015625 -9.078125 C 15.015625 -6.472656 15.410156 -4.539062 16.203125 -3.28125 C 16.992188 -2.019531 17.992188 -1.390625 19.203125 -1.390625 Z M 19.203125 -1.390625 "/></g></g></g><g fill="#ffffff" fill-opacity="1"><g transform="translate(159.537093, 63.495408)"><g><path d="M 2.09375 -32.8125 L -1.390625 -33.859375 L -1.390625 -34.90625 L 7.328125 -34.90625 C 9.753906 -34.90625 11.675781 -34.40625 13.09375 -33.40625 C 14.507812 -32.40625 15.734375 -30.929688 16.765625 -28.984375 L 25.0625 -12.84375 L 32.8125 -31.765625 L 27.578125 -33.859375 L 27.578125 -34.90625 L 40.5 -34.90625 L 40.5 -33.859375 L 34.90625 -31.765625 L 21.640625 0.703125 L 19.546875 0.703125 Z M 2.09375 -32.8125 "/></g></g></g><g fill="#ffffff" fill-opacity="1"><g transform="translate(198.635896, 63.495408)"><g><path d="M -1.390625 -1.046875 L 4.1875 -3.140625 L 23.390625 -49.578125 L 25.484375 -49.578125 L 45.390625 -2.09375 L 48.875 -1.046875 L 48.875 0 L 40.5 0 C 38.082031 0 36.101562 -0.546875 34.5625 -1.640625 C 33.03125 -2.734375 31.890625 -4.164062 31.140625 -5.9375 L 27.578125 -14.3125 L 10.890625 -14.3125 L 6.28125 -3.140625 L 11.515625 -1.046875 L 11.515625 0 L -1.390625 0 Z M 11.59375 -16.0625 L 26.890625 -16.0625 L 19.203125 -34.421875 Z M 11.59375 -16.0625 "/></g></g></g><g fill="#ffffff" fill-opacity="1"><g transform="translate(246.113027, 63.495408)"><g><path d="M 2.796875 -1.046875 L 6.984375 -2.09375 L 6.984375 -32.8125 L 2.796875 -33.859375 L 2.796875 -34.90625 L 9.078125 -34.90625 C 11.828125 -34.90625 13.992188 -34.023438 15.578125 -32.265625 C 16.179688 -31.566406 16.691406 -30.703125 17.109375 -29.671875 C 17.753906 -30.890625 18.519531 -31.9375 19.40625 -32.8125 C 21.5 -34.914062 24.109375 -35.96875 27.234375 -35.96875 C 29.835938 -35.96875 32.175781 -35.414062 34.25 -34.3125 C 36.320312 -33.21875 37.9375 -31.785156 39.09375 -30.015625 C 40.257812 -28.253906 40.84375 -26.394531 40.84375 -24.4375 L 40.84375 -2.09375 L 45.046875 -1.046875 L 45.046875 0 L 35.96875 0 C 31.769531 0 29.671875 -2.09375 29.671875 -6.28125 L 29.671875 -24.4375 C 29.671875 -27.375 29.144531 -29.617188 28.09375 -31.171875 C 27.050781 -32.734375 25.832031 -33.515625 24.4375 -33.515625 C 22.664062 -33.515625 21.082031 -32.582031 19.6875 -30.71875 C 19.082031 -29.925781 18.570312 -29 18.15625 -27.9375 L 18.15625 -2.09375 L 22.34375 -1.046875 L 22.34375 0 L 2.796875 0 Z M 2.796875 -1.046875 "/></g></g></g><g fill="#ffffff" fill-opacity="1"><g transform="translate(292.542886, 63.495408)"><g><path d="M 16.40625 1.046875 C 12.257812 1.046875 9.066406 0.160156 6.828125 -1.609375 C 4.597656 -3.378906 3.484375 -5.632812 3.484375 -8.375 C 3.484375 -10.195312 3.878906 -11.988281 4.671875 -13.75 C 5.003906 -14.59375 5.425781 -15.363281 5.9375 -16.0625 C 7.84375 -16.53125 9.914062 -16.945312 12.15625 -17.3125 C 17.175781 -18.15625 21.617188 -18.671875 25.484375 -18.859375 L 25.484375 -20.953125 C 25.484375 -26.117188 24.851562 -29.675781 23.59375 -31.625 C 22.34375 -33.582031 20.414062 -34.5625 17.8125 -34.5625 C 16.832031 -34.5625 15.992188 -34.445312 15.296875 -34.21875 L 14.3125 -33.859375 L 14.3125 -23.390625 L 13.40625 -23.1875 C 12.664062 -23.09375 12.035156 -23.046875 11.515625 -23.046875 C 9.929688 -23.046875 8.660156 -23.519531 7.703125 -24.46875 C 6.753906 -25.425781 6.28125 -26.695312 6.28125 -28.28125 C 6.28125 -30.425781 7.363281 -32.242188 9.53125 -33.734375 C 11.695312 -35.222656 14.921875 -35.96875 19.203125 -35.96875 C 22.835938 -35.96875 25.96875 -35.328125 28.59375 -34.046875 C 31.226562 -32.765625 33.226562 -30.992188 34.59375 -28.734375 C 35.96875 -26.472656 36.65625 -23.878906 36.65625 -20.953125 L 36.65625 -2.09375 L 40.84375 -1.046875 L 40.84375 0 L 34.5625 0 C 31.769531 0 29.609375 -0.859375 28.078125 -2.578125 C 27.421875 -3.273438 26.90625 -4.160156 26.53125 -5.234375 C 25.882812 -4.066406 25.117188 -3.019531 24.234375 -2.09375 C 22.140625 0 19.53125 1.046875 16.40625 1.046875 Z M 19.203125 -1.390625 C 20.921875 -1.390625 22.476562 -2.320312 23.875 -4.1875 C 24.394531 -4.882812 24.929688 -5.816406 25.484375 -6.984375 L 25.484375 -17.109375 C 23.347656 -17.109375 21.300781 -16.992188 19.34375 -16.765625 C 17.894531 -16.578125 16.914062 -16.457031 16.40625 -16.40625 C 16.175781 -15.894531 15.945312 -15.195312 15.71875 -14.3125 C 15.25 -12.539062 15.015625 -10.796875 15.015625 -9.078125 C 15.015625 -6.472656 15.410156 -4.539062 16.203125 -3.28125 C 16.992188 -2.019531 17.992188 -1.390625 19.203125 -1.390625 Z M 19.203125 -1.390625 "/></g></g></g><g fill="#ffffff" fill-opacity="1"><g transform="translate(334.78357, 63.495408)"><g><path d="M 2.796875 -1.046875 L 6.984375 -2.09375 L 6.984375 -32.8125 L 2.796875 -33.859375 L 2.796875 -34.90625 L 9.078125 -34.90625 C 11.828125 -34.90625 13.992188 -34.023438 15.578125 -32.265625 C 16.179688 -31.566406 16.691406 -30.703125 17.109375 -29.671875 C 17.753906 -30.890625 18.519531 -31.9375 19.40625 -32.8125 C 21.5 -34.914062 24.109375 -35.96875 27.234375 -35.96875 C 29.835938 -35.96875 32.175781 -35.414062 34.25 -34.3125 C 36.320312 -33.21875 37.9375 -31.785156 39.09375 -30.015625 C 40.257812 -28.253906 40.84375 -26.394531 40.84375 -24.4375 L 40.84375 -2.09375 L 45.046875 -1.046875 L 45.046875 0 L 35.96875 0 C 31.769531 0 29.671875 -2.09375 29.671875 -6.28125 L 29.671875 -24.4375 C 29.671875 -27.375 29.144531 -29.617188 28.09375 -31.171875 C 27.050781 -32.734375 25.832031 -33.515625 24.4375 -33.515625 C 22.664062 -33.515625 21.082031 -32.582031 19.6875 -30.71875 C 19.082031 -29.925781 18.570312 -29 18.15625 -27.9375 L 18.15625 -2.09375 L 22.34375 -1.046875 L 22.34375 0 L 2.796875 0 Z M 2.796875 -1.046875 "/></g></g></g><g fill="#ffffff" fill-opacity="1"><g transform="translate(381.213387, 63.495408)"><g><path d="M 17.109375 1.046875 C 14.359375 1.046875 11.910156 0.335938 9.765625 -1.078125 C 7.628906 -2.503906 5.929688 -4.597656 4.671875 -7.359375 C 3.421875 -10.128906 2.796875 -13.492188 2.796875 -17.453125 C 2.796875 -23.410156 4.179688 -27.984375 6.953125 -31.171875 C 9.722656 -34.367188 13.457031 -35.96875 18.15625 -35.96875 C 20.382812 -35.96875 22.335938 -35.5 24.015625 -34.5625 C 24.710938 -34.238281 25.4375 -33.773438 26.1875 -33.171875 L 26.1875 -46.78125 L 22 -47.828125 L 22 -48.875 L 31.078125 -48.875 C 35.265625 -48.875 37.359375 -46.78125 37.359375 -42.59375 L 37.359375 -2.09375 L 41.546875 -1.046875 L 41.546875 0 L 35.265625 0 C 32.472656 0 30.304688 -0.859375 28.765625 -2.578125 C 28.117188 -3.273438 27.609375 -4.160156 27.234375 -5.234375 C 26.628906 -4.066406 25.859375 -3.019531 24.921875 -2.09375 C 22.828125 0 20.222656 1.046875 17.109375 1.046875 Z M 19.90625 -1.390625 C 21.625 -1.390625 23.179688 -2.320312 24.578125 -4.1875 C 25.085938 -4.882812 25.625 -5.816406 26.1875 -6.984375 L 26.1875 -31.078125 C 25.675781 -31.585938 25.140625 -32.050781 24.578125 -32.46875 C 23.316406 -33.394531 22.109375 -33.859375 20.953125 -33.859375 C 18.953125 -33.859375 17.398438 -32.695312 16.296875 -30.375 C 15.203125 -28.050781 14.65625 -23.742188 14.65625 -17.453125 C 14.65625 -11.453125 15.15625 -7.273438 16.15625 -4.921875 C 17.164062 -2.566406 18.414062 -1.390625 19.90625 -1.390625 Z M 19.90625 -1.390625 "/></g></g></g></g></g></g></g></g></g></svg>